# Blender v2.81 (sub 16) OBJ File: ''
# www.blender.org
mtllib gorin.mtl
o gorin
v -92.192482 -49.242859 9.277512
v 113.018784 66.689415 28.416990
v -92.192482 66.689415 9.277506
v -83.252953 66.689415 28.901653
v -79.659142 -49.242859 29.236988
v 113.018784 -41.932854 28.416996
v 18.041073 -49.242859 28.821199
v 32.950401 -33.539257 28.710255
v 85.845177 -39.084236 28.516521
v 83.049866 -38.849373 34.471909
v 38.973549 -34.228840 34.633339
v 36.014557 -33.860474 28.699032
v 42.126671 13.823763 34.653889
v 83.754349 13.375357 34.469322
v 86.390907 18.672052 28.514521
v 40.815010 18.598557 28.720036
v 115.484657 -53.218487 1.989407
v 113.018784 -41.932854 28.416996
v 11.102824 -49.242859 1.516140
v 32.407639 -33.539257 34.527195
v 88.100800 -53.218483 1.865246
v 84.471832 -38.997169 34.336502
v 83.935211 -55.526798 1.846359
v 26.426336 -51.551170 1.585617
v 82.761513 -42.188820 26.210112
v 39.505928 -38.156609 26.227976
vt 0.947967 1.000000
vt 0.930455 0.000000
vt 1.000000 0.000000
vt 1.000000 1.000000
vt 0.000000 0.063054
vt 0.131226 0.087626
vt 0.128601 0.585814
vt 0.348712 0.585182
vt 0.371867 0.132685
vt 0.386664 0.135455
vt 0.458654 0.000000
vt 0.000000 1.000000
vt 0.142045 0.089651
vt 0.138653 0.540127
vt 0.339695 0.543996
vt 0.354898 0.129507
vt 0.000000 0.000000
vt 0.120325 0.000000
vt 0.135237 0.088377
vt 0.000000 0.063054
vt 0.138628 0.000000
vt 0.145733 0.082017
vt 0.352934 0.117215
vt 0.391322 0.000000
vt 0.458654 0.000000
vt 0.386664 0.135455
vn 0.8789 0.0129 -0.4768
vn -0.0032 -0.0017 -1.0000
vn -0.0558 -0.4977 -0.8655
vn -0.0040 0.0003 -1.0000
vn 0.0071 0.9179 -0.3968
vn 0.0573 0.8914 -0.4496
vn 0.0702 0.8684 -0.4908
usemtl Material.001
s off
f 4/1/1 5/2/1 1/3/1 3/4/1
f 6/5/2 9/6/2 15/7/2 16/8/2 12/9/2 8/10/2 7/11/2 5/2/2 4/1/2 2/12/2
f 12/9/3 16/8/3 15/7/3 9/6/3 10/13/3 14/14/3 13/15/3 11/16/3
f 11/16/4 13/15/4 14/14/4 10/13/4
f 17/17/5 21/18/5 22/19/5 18/20/5
f 22/19/6 21/18/6 23/21/6 25/22/6 26/23/6 24/24/6 19/25/6 20/26/6
f 24/24/7 26/23/7 25/22/7 23/21/7
o gorin.001
v -20.978605 30.341640 -20.708069
v -2.473819 29.884277 -21.542942
v 5.119726 -31.568689 -16.590843
v -44.237411 -33.145016 -20.783934
v 9.974683 -21.716660 -19.522470
v 34.822632 -22.483212 -18.927277
v 36.609245 1.581856 -15.637293
v 38.388031 3.161958 -14.471470
v 39.295929 4.758821 -14.062910
v 40.070396 6.559558 -15.782994
v 41.215935 8.799875 -16.303528
v 41.302956 10.005713 -15.272734
v 40.864883 11.096890 -16.079941
v 40.162933 12.028860 -17.550114
v 40.845833 13.194020 -15.073222
v 41.096878 13.968760 -14.426677
v 40.883316 15.041840 -14.819933
v 40.222305 16.204208 -13.794331
v 39.245888 16.766531 -13.841457
v 37.660583 17.509573 -15.432022
v 37.153542 17.460545 -15.985604
v 36.871109 17.053984 -16.615196
v 36.739952 16.782829 -16.788109
v 36.386253 16.658995 -17.027466
v 36.125191 16.249491 -17.332222
v 35.990120 15.572872 -17.480301
v 35.512314 15.562340 -17.563154
v 34.531158 16.381008 -15.345302
v 33.764053 16.785650 -15.719242
v 32.915497 16.697073 -15.899637
v 32.292248 16.291233 -15.723305
v 32.144444 15.725718 -15.396395
v 5.813459 17.061495 -15.891220
v 5.079486 6.382883 -16.340435
v 0.181656 6.650540 -15.638581
v -1.838655 6.526275 -17.811672
v -1.434651 7.584614 -17.644566
v -1.351047 8.767714 -17.919716
v -1.061188 10.306802 -18.213585
v -0.041037 11.392033 -17.729164
v 0.575431 12.741450 -17.195351
v 0.959183 14.978651 -17.275566
v 1.463384 15.677225 -17.138079
v 1.639990 17.482773 -17.618624
v 1.580918 20.425552 -18.846790
v 0.437356 24.540071 -20.303005
v -1.301439 27.473433 -21.054415
v -22.779604 26.044146 -20.910934
v -23.186291 23.658785 -21.144890
v -23.562996 21.629461 -20.927036
v -23.891798 18.738113 -20.850376
v -24.338852 16.683765 -20.183636
v -23.418173 10.768664 -18.912491
v -23.444103 9.691254 -18.168182
v -22.322504 8.877788 -18.902874
v -21.990589 6.750894 -18.024549
v -26.263594 5.238937 -16.696199
v -27.582918 4.835108 -18.315189
v -28.776155 4.962474 -18.292889
v -29.633242 3.839315 -21.331295
v -31.202055 3.405488 -21.607323
v -32.865509 2.487808 -22.186104
v -36.950752 -0.071915 -20.052940
v -39.352112 -3.999178 -22.380455
v -40.970413 -6.213277 -22.128567
v -41.244057 -9.029634 -23.816410
v -42.604370 -13.662788 -23.347025
v -43.553055 -17.719198 -23.673969
v -43.322533 -20.159241 -25.392447
v -44.060234 -26.314632 -23.717163
v -44.263329 -30.326773 -21.899307
v -2.666247 3.435859 -18.002161
v -4.449384 0.374336 -17.743126
v -7.035198 -1.784008 -19.385662
v -10.633806 -2.759501 -20.047859
v -14.266304 -2.421380 -19.724487
v -17.828964 0.581661 -19.597588
v -20.991333 4.311269 -17.783621
v 8.822191 -21.235607 -21.413132
v 4.186593 -16.152575 -17.656273
v -1.366673 -32.535999 -20.809647
v -32.477493 -33.075764 -20.326042
v 1.375864 -17.443506 -21.956488
v -3.858726 -21.861189 -21.260994
v -6.052800 -23.907751 -20.565952
v -9.818486 -25.269857 -19.439770
v -20.371052 -28.499138 -20.718925
v -25.206251 -28.782604 -21.257240
v 0.700498 -30.415665 -22.210674
v 3.272375 -29.225641 -23.664999
v 5.578048 -29.659689 -20.396389
v 6.131971 -26.767611 -24.589180
v 6.752447 -25.593943 -24.005512
v 7.619451 -25.139654 -21.636719
v 8.200367 -22.434748 -22.016079
v -28.026102 -12.151632 -24.954849
v 37.388412 7.416800 -19.195696
v 36.346550 8.508947 -17.227581
v 34.332069 10.075999 -14.845815
v 34.853699 13.189134 -16.424789
v 37.557251 13.313355 -18.154663
v 37.489517 13.951706 -18.374201
v 36.159096 14.547497 -17.651987
v -5.555747 -2.192148 -17.997717
v -8.496634 -4.700021 -16.336332
v -14.178314 -5.235165 -16.652382
v -18.439350 -3.234553 -16.279495
v -20.937731 1.136881 -16.190178
v -23.415829 4.520674 -15.773543
v -23.117723 0.806250 -19.031708
v -21.134378 -3.912512 -18.972801
v -17.266926 -7.061577 -17.799822
v -11.416245 -8.359099 -17.629192
v -6.101012 -6.671981 -14.603652
v -3.425151 -3.322247 -14.665015
v -2.248556 0.891836 -16.040977
v -0.313369 15.036430 -18.626192
v -0.995717 20.680157 -20.642599
v -4.304273 23.882759 -23.070999
v -8.967159 23.828175 -23.646107
v -13.403997 25.150167 -23.476917
v -17.968115 23.329817 -22.781376
v -20.815355 18.333748 -22.442913
v -10.243972 4.607614 -20.032078
v -9.509737 16.379961 -21.763836
v -2.629976 16.588198 -20.921261
v -13.341488 19.040228 -22.371593
v -9.561288 14.992434 -21.952288
v -21.162241 15.306103 -22.879845
v -0.673908 12.800539 -18.351143
v -4.787257 14.483215 -20.672152
v -14.428663 15.793966 -21.027327
v -9.874874 8.324020 -22.120842
vt 0.660089 0.944140
vt 0.702814 0.917431
vt 0.727470 1.000000
vt 0.672066 0.444935
vt 0.618549 0.450772
vt 0.647653 0.390678
vt 0.221402 0.759551
vt 0.223357 0.708779
vt 0.247032 0.800880
vt 0.476974 0.092435
vt 0.533878 0.229660
vt 0.461760 0.146525
vt 0.484768 0.000000
vt 0.484299 0.028331
vt 0.466833 0.102452
vt 0.809118 0.326836
vt 0.847696 0.000000
vt 0.952601 0.195740
vt 0.198708 0.772075
vt 0.212754 0.798923
vt 0.205679 0.820168
vt 0.232724 0.819329
vt 0.225019 0.813459
vt 0.781935 0.626360
vt 0.754698 0.613539
vt 0.756109 0.548433
vt 0.674866 0.489246
vt 0.641297 0.481118
vt 0.557987 0.539243
vt 0.562703 0.580250
vt 0.532806 0.633818
vt 0.670947 0.791215
vt 0.626553 0.773920
vt 0.632134 0.663090
vt 0.635144 0.603314
vt 0.580359 0.530938
vt 0.606737 0.495608
vt 0.549410 0.648913
vt 0.553751 0.631470
vt 0.707160 0.541399
vt 0.575109 0.917431
vt 0.543182 0.864011
vt 0.560220 0.796780
vt 0.619243 0.919100
vt 0.660773 0.843383
vt 0.554850 1.000000
vt 0.625384 0.797124
vt 0.580957 0.763393
vt 0.548467 0.668368
vt 0.742511 0.648037
vt 0.733892 0.606903
vt 0.543907 0.976873
vt 0.528058 0.927564
vt 0.517579 0.859584
vt 0.517013 0.811617
vt 0.518900 0.782098
vt 0.537079 0.771361
vt 0.523994 0.770693
vt 0.528334 0.733794
vt 0.535071 0.711304
vt 0.541028 0.734634
vt 0.745131 0.967296
vt 0.754097 0.894358
vt 0.750022 0.927687
vt 0.754964 0.715259
vt 0.762520 0.813209
vt 0.735749 0.785959
vt 0.758173 0.846538
vt 0.730985 0.836467
vt 0.545448 0.693526
vt 0.745455 0.683057
vt 0.754964 0.697950
vt 0.733108 0.555108
vt 0.738737 0.468305
vt 0.702114 0.414887
vt 0.711037 0.480824
vt 0.569255 0.471634
vt 0.595072 0.418221
vt 0.591798 0.489158
vt 0.208923 0.162530
vt 0.442851 0.161328
vt 0.198782 0.567582
vt 0.455335 0.166889
vt 0.498155 0.252021
vt 0.496391 0.627109
vt 0.494071 0.805299
vt 0.217314 0.798364
vt 0.210837 0.781813
vt 0.197143 0.662176
vt 0.205751 0.681651
vt 0.197534 0.761642
vt 0.559232 0.000000
vt 0.736142 0.056375
vt 0.781215 0.052370
vt 0.541767 0.015311
vt 0.602615 0.127491
vt 0.636981 0.107455
vt 0.483172 0.072403
vt 0.519230 0.032338
vt 0.582895 0.159545
vt 0.911679 0.467457
vt 0.886772 0.535484
vt 0.957328 0.000000
vt 0.958610 0.028914
vt 0.958339 0.094606
vt 0.953254 0.238633
vt 0.943798 0.306450
vt 0.931087 0.382905
vt 0.926785 0.431208
vt 0.181881 0.596428
vt 0.173767 0.624072
vt 0.159549 0.690483
vt 0.172003 0.742475
vt 0.168795 0.652914
vt 0.158418 0.711615
vt 0.163700 0.728723
vt 0.161610 0.778478
vt 0.164126 0.764782
vt 0.164441 0.795809
vt 0.170301 0.815695
vt 0.196244 0.834144
vt 0.179735 0.824361
vt 0.204420 0.824920
vt 0.201434 0.832467
vt 0.211654 0.810384
vt 0.209138 0.817652
vt 0.246246 0.810105
vt 0.240742 0.817093
vt 0.849861 0.576849
vt 0.833332 0.593353
vt 0.818162 0.600598
vt 0.807067 0.621529
vt 0.795973 0.618712
vn -0.0754 0.1408 -0.9872
vn -0.1783 0.0409 -0.9831
vn -0.1873 0.2577 -0.9479
vn -0.0341 -0.1567 -0.9871
vn 0.2668 -0.4928 -0.8282
vn 0.1446 0.2409 -0.9597
vn -0.5301 -0.2856 -0.7983
vn -0.3597 -0.0660 -0.9307
vn -0.1330 -0.1086 -0.9851
vn 0.5360 -0.0129 -0.8441
vn 0.0829 0.4971 -0.8637
vn 0.6261 0.1629 -0.7625
vn 0.6019 -0.7294 -0.3250
vn 0.6821 -0.6736 -0.2844
vn 0.8902 -0.3780 -0.2542
vn 0.2264 0.0775 -0.9709
vn 0.0691 -0.2574 -0.9638
vn -0.0056 0.0401 -0.9992
vn 0.1240 0.0473 -0.9911
vn 0.0667 0.3048 -0.9501
vn 0.5994 0.3778 -0.7057
vn 0.1718 -0.5178 -0.8380
vn -0.1539 0.6204 -0.7690
vn 0.4440 0.3820 -0.8105
vn -0.1014 0.0406 -0.9940
vn 0.4758 0.2890 -0.8307
vn -0.2206 -0.4270 -0.8769
vn 0.0869 -0.4730 -0.8767
vn 0.4599 -0.3489 -0.8165
vn 0.5276 -0.2134 -0.8222
vn 0.2456 -0.0089 -0.9693
vn -0.0462 -0.2134 -0.9759
vn 0.0475 0.0764 -0.9959
vn 0.0770 -0.2441 -0.9666
vn 0.0847 -0.2341 -0.9685
vn 0.5460 -0.2302 -0.8055
vn 0.4046 -0.3372 -0.8500
vn 0.4539 -0.1431 -0.8795
vn 0.5196 -0.1184 -0.8462
vn -0.4268 -0.1503 -0.8918
vn 0.2820 -0.0255 -0.9590
vn 0.5410 -0.1630 -0.8250
vn 0.3856 -0.2615 -0.8848
vn 0.0450 -0.0044 -0.9990
vn -0.0331 -0.2577 -0.9656
vn 0.2319 0.2239 -0.9466
vn 0.0408 -0.1050 -0.9936
vn 0.2874 -0.2012 -0.9364
vn 0.4183 -0.2119 -0.8832
vn -0.3127 -0.3935 -0.8645
vn -0.3691 -0.0774 -0.9261
vn 0.4976 0.0695 -0.8646
vn 0.5199 -0.0498 -0.8527
vn 0.5361 -0.2534 -0.8052
vn 0.6205 -0.2359 -0.7479
vn 0.6738 -0.2832 -0.6825
vn 0.6497 -0.2015 -0.7329
vn 0.6949 -0.2705 -0.6663
vn 0.6849 -0.1141 -0.7196
vn 0.5921 -0.0877 -0.8011
vn 0.5608 -0.1638 -0.8116
vn -0.2818 0.1531 -0.9471
vn -0.3647 0.0409 -0.9302
vn -0.2966 0.0417 -0.9541
vn -0.6336 -0.3405 -0.6947
vn -0.6121 -0.1257 -0.7807
vn -0.1915 -0.1883 -0.9633
vn -0.4666 -0.0816 -0.8807
vn -0.2171 0.0313 -0.9756
vn 0.4009 -0.1904 -0.8961
vn -0.3165 -0.3726 -0.8723
vn -0.6875 -0.4014 -0.6051
vn 0.1339 -0.1833 -0.9739
vn 0.5113 0.3022 -0.8045
vn 0.2947 0.2646 -0.9182
vn 0.0667 0.0043 -0.9977
vn 0.2228 -0.2013 -0.9538
vn 0.2255 0.0161 -0.9741
vn 0.5667 -0.4605 -0.6832
vn 0.0278 0.1334 -0.9907
vn 0.5500 0.2090 -0.8086
vn 0.0833 -0.0801 -0.9933
vn 0.5394 0.4376 -0.7194
vn 0.2219 0.4726 -0.8529
vn -0.0289 0.0419 -0.9987
vn 0.0208 0.0406 -0.9989
vn -0.3372 0.0725 -0.9386
vn -0.4640 -0.1195 -0.8777
vn -0.1156 0.0780 -0.9902
vn -0.6036 0.0894 -0.7923
vn 0.0055 -0.1487 -0.9888
vn -0.0290 -0.3542 -0.9347
vn 0.1011 -0.0324 -0.9943
vn 0.0860 -0.2927 -0.9523
vn -0.0814 -0.5642 -0.8216
vn -0.2978 -0.0204 -0.9544
vn -0.0724 0.1133 -0.9909
vn 0.2102 0.0055 -0.9776
vn 0.0320 -0.5244 -0.8509
vn -0.2781 0.1104 -0.9542
vn -0.0336 0.4011 -0.9154
vn -0.2225 0.2210 -0.9496
vn 0.0383 -0.3674 -0.9293
vn 0.0306 -0.3943 -0.9185
vn 0.0877 -0.3225 -0.9425
vn -0.2142 0.3916 -0.8948
vn -0.1136 0.0395 -0.9927
vn -0.1326 0.1368 -0.9817
vn -0.6763 0.4259 -0.6010
vn 0.7672 -0.3873 -0.5112
vn 0.7241 -0.4647 -0.5097
vn 0.5254 0.0764 -0.8474
vn 0.5046 0.0509 -0.8618
vn 0.5384 -0.6138 -0.5773
vn 0.9444 0.1716 -0.2805
vn 0.5711 -0.1914 -0.7982
vn 0.9162 0.0361 -0.3990
vn 0.7418 0.2312 -0.6295
vn 0.6172 0.4444 -0.6492
vn 0.4031 0.7028 -0.5862
vn 0.7365 0.2535 -0.6271
vn 0.5332 0.5950 -0.6014
vn 0.8336 -0.0100 -0.5523
vn 0.6104 0.5119 -0.6044
vn 0.6284 0.0663 -0.7750
vn 0.4450 0.3345 -0.8307
vn 0.0958 -0.5168 -0.8507
vn 0.2091 -0.5755 -0.7906
vn -0.0074 0.1127 -0.9936
vn 0.2980 -0.0189 -0.9544
vn 0.3345 0.1100 -0.9359
vn 0.0919 0.9253 -0.3679
vn 0.4069 0.7456 -0.5277
usemtl gorin
s 1
f 147/27/8 148/28/9 27/29/10
f 132/30/11 131/31/12 139/32/13
f 126/33/14 125/34/15 58/35/16
f 119/36/17 109/37/18 121/38/19
f 29/39/20 117/40/21 120/41/22
f 122/42/23 108/43/24 95/44/25
f 128/45/26 52/46/27 49/47/28
f 55/48/29 54/49/30 58/35/16
f 83/50/31 135/51/32 136/52/33
f 132/30/11 102/53/34 101/54/35
f 142/55/36 98/56/37 61/57/38
f 158/58/39 154/59/40 159/60/41
f 150/61/42 99/62/43 100/63/44
f 159/60/41 63/64/45 62/65/46
f 150/61/42 102/53/34 103/66/47
f 145/67/48 144/68/49 152/69/50
f 147/27/8 146/70/51 153/71/52
f 27/29/10 28/72/53 147/27/8
f 151/73/54 152/69/50 157/74/55
f 153/71/52 151/73/54 158/58/39
f 64/75/56 159/60/41 157/74/55
f 82/76/57 159/60/41 104/77/58
f 28/72/53 73/78/59 145/67/48
f 147/27/8 28/72/53 146/70/51
f 73/78/59 72/79/60 145/67/48
f 72/79/60 71/80/61 144/68/49
f 71/80/61 70/81/62 144/68/49
f 70/81/62 69/82/63 143/83/64
f 68/84/65 67/85/66 143/83/64
f 67/85/66 66/86/67 156/87/68
f 70/81/62 143/83/64 144/68/49
f 69/82/63 68/84/65 143/83/64
f 74/88/69 27/29/10 148/28/9
f 76/89/70 75/90/71 148/28/9
f 75/90/71 74/88/69 148/28/9
f 79/91/72 78/92/73 155/93/74
f 78/92/73 77/94/75 149/95/76
f 155/93/74 78/92/73 149/95/76
f 77/94/75 76/89/70 149/95/76
f 149/95/76 76/89/70 148/28/9
f 72/79/60 144/68/49 145/67/48
f 67/85/66 156/87/68 143/83/64
f 66/86/67 65/96/77 156/87/68
f 81/97/78 80/98/79 79/91/72
f 155/93/74 81/97/78 79/91/72
f 145/67/48 146/70/51 28/72/53
f 135/51/32 82/76/57 104/77/58
f 135/51/32 104/77/58 136/52/33
f 104/77/58 134/99/80 136/52/33
f 137/100/81 136/52/33 134/99/80
f 139/32/13 138/101/82 132/30/11
f 138/101/82 137/100/81 133/102/83
f 141/103/84 140/104/85 130/105/86
f 140/104/85 139/32/13 131/31/12
f 130/105/86 140/104/85 131/31/12
f 98/56/37 142/55/36 99/62/43
f 142/55/36 141/103/84 99/62/43
f 130/105/86 99/62/43 141/103/84
f 137/100/81 134/99/80 133/102/83
f 138/101/82 133/102/83 132/30/11
f 32/106/87 31/107/88 33/108/89
f 31/107/88 105/109/90 106/110/91
f 33/108/89 31/107/88 106/110/91
f 106/110/91 60/111/92 33/108/89
f 60/111/92 59/112/93 58/35/16
f 53/113/94 52/46/27 129/114/95
f 60/111/92 58/35/16 125/34/15
f 58/35/16 53/113/94 126/33/14
f 123/115/96 33/108/89 124/116/97
f 125/34/15 33/108/89 60/111/92
f 125/34/15 124/116/97 33/108/89
f 128/45/26 127/117/98 129/114/95
f 127/117/98 126/33/14 129/114/95
f 53/113/94 129/114/95 126/33/14
f 107/118/99 108/43/24 113/119/100
f 108/43/24 114/120/101 113/119/100
f 115/121/102 107/118/99 111/122/103
f 107/118/99 113/119/100 112/123/104
f 107/118/99 112/123/104 111/122/103
f 118/124/105 117/40/21 116/125/106
f 116/125/106 115/121/102 110/126/107
f 111/122/103 110/126/107 115/121/102
f 110/126/107 109/37/18 116/125/106
f 116/125/106 109/37/18 119/36/17
f 119/36/17 118/124/105 116/125/106
f 121/38/19 120/41/22 119/36/17
f 106/110/91 105/109/90 121/38/19
f 109/37/18 106/110/91 121/38/19
f 29/39/20 107/118/99 115/121/102
f 115/121/102 116/125/106 29/39/20
f 116/125/106 117/40/21 29/39/20
f 117/40/21 118/124/105 120/41/22
f 118/124/105 119/36/17 120/41/22
f 120/41/22 121/38/19 31/107/88
f 121/38/19 105/109/90 31/107/88
f 31/107/88 29/39/20 120/41/22
f 90/127/108 89/128/109 122/42/23
f 122/42/23 114/120/101 108/43/24
f 108/43/24 30/129/110 97/130/111
f 97/130/111 96/131/112 108/43/24
f 96/131/112 95/44/25 108/43/24
f 95/44/25 94/132/113 122/42/23
f 94/132/113 93/133/114 122/42/23
f 92/134/115 91/135/116 90/127/108
f 93/133/114 92/134/115 122/42/23
f 90/127/108 122/42/23 92/134/115
f 34/136/117 33/108/89 123/115/96
f 124/116/97 125/34/15 127/117/98
f 125/34/15 126/33/14 127/117/98
f 35/137/118 34/136/117 123/115/96
f 123/115/96 124/116/97 37/138/119
f 124/116/97 127/117/98 40/139/120
f 36/140/121 35/137/118 123/115/96
f 38/141/122 37/138/119 39/142/123
f 37/138/119 36/140/121 123/115/96
f 40/139/120 39/142/123 124/116/97
f 42/143/124 41/144/125 43/145/126
f 41/144/125 40/139/120 127/117/98
f 128/45/26 41/144/125 127/117/98
f 44/146/127 43/145/126 128/45/26
f 128/45/26 43/145/126 41/144/125
f 46/147/128 45/148/129 49/47/28
f 45/148/129 44/146/127 128/45/26
f 48/149/130 47/150/131 46/147/128
f 51/151/132 50/152/133 49/47/28
f 49/47/28 48/149/130 46/147/128
f 45/148/129 128/45/26 49/47/28
f 39/142/123 37/138/119 124/116/97
f 51/151/132 49/47/28 52/46/27
f 129/114/95 52/46/27 128/45/26
f 54/49/30 53/113/94 58/35/16
f 58/35/16 57/153/134 56/154/135
f 56/154/135 55/48/29 58/35/16
f 138/101/82 139/32/13 112/123/104
f 139/32/13 111/122/103 112/123/104
f 112/123/104 113/119/100 138/101/82
f 138/101/82 113/119/100 122/42/23
f 113/119/100 114/120/101 122/42/23
f 122/42/23 89/128/109 88/155/136
f 88/155/136 87/156/137 136/52/33
f 87/156/137 86/157/138 136/52/33
f 86/157/138 85/158/139 84/159/140
f 83/50/31 82/76/57 135/51/32
f 86/157/138 84/159/140 136/52/33
f 84/159/140 83/50/31 136/52/33
f 122/42/23 88/155/136 137/100/81
f 137/100/81 88/155/136 136/52/33
f 137/100/81 138/101/82 122/42/23
f 100/63/44 99/62/43 130/105/86
f 130/105/86 131/31/12 100/63/44
f 131/31/12 132/30/11 101/54/35
f 100/63/44 131/31/12 101/54/35
f 132/30/11 133/102/83 102/53/34
f 133/102/83 134/99/80 103/66/47
f 102/53/34 133/102/83 103/66/47
f 134/99/80 104/77/58 103/66/47
f 110/126/107 111/122/103 139/32/13
f 110/126/107 139/32/13 140/104/85
f 60/111/92 106/110/91 141/103/84
f 106/110/91 109/37/18 140/104/85
f 60/111/92 141/103/84 142/55/36
f 109/37/18 110/126/107 140/104/85
f 140/104/85 141/103/84 106/110/91
f 61/57/38 60/111/92 142/55/36
f 98/56/37 62/65/46 61/57/38
f 159/60/41 81/97/78 158/58/39
f 81/97/78 155/93/74 158/58/39
f 100/63/44 101/54/35 150/61/42
f 150/61/42 98/56/37 99/62/43
f 62/65/46 98/56/37 150/61/42
f 150/61/42 159/60/41 62/65/46
f 103/66/47 104/77/58 150/61/42
f 150/61/42 101/54/35 102/53/34
f 144/68/49 143/83/64 152/69/50
f 152/69/50 151/73/54 145/67/48
f 151/73/54 146/70/51 145/67/48
f 146/70/51 151/73/54 153/71/52
f 153/71/52 149/95/76 148/28/9
f 148/28/9 147/27/8 153/71/52
f 143/83/64 156/87/68 152/69/50
f 156/87/68 157/74/55 152/69/50
f 157/74/55 154/59/40 151/73/54
f 151/73/54 154/59/40 158/58/39
f 158/58/39 155/93/74 149/95/76
f 149/95/76 153/71/52 158/58/39
f 64/75/56 63/64/45 159/60/41
f 159/60/41 154/59/40 157/74/55
f 157/74/55 156/87/68 65/96/77
f 65/96/77 64/75/56 157/74/55
f 81/97/78 159/60/41 82/76/57
f 159/60/41 150/61/42 104/77/58
