# Blender v2.90.1 OBJ File: ''
# www.blender.org
mtllib screen_reaching_hand.mtl
o screen_reaching_hand.001
v -42.368912 -50.000000 0.000044
v -42.368912 50.000000 0.000039
v -110.527344 88.466606 4.365561
v -110.527344 -88.466606 4.365569
v 38.649220 -50.000000 -0.000036
v 38.649220 50.000000 -0.000040
v 106.807671 -88.466606 4.365380
v 106.807671 88.466606 4.365373
v 21.236252 -11.783829 -48.123493
v 27.325228 5.628297 -48.123489
v 5.055664 -6.125514 -48.123478
v 11.144643 11.286608 -48.123474
vt 0.543984 0.000000
vt 1.000000 0.000000
vt 1.000000 1.000000
vt 0.543984 1.000000
vt 0.912725 0.822829
vt 0.962438 0.822829
vt 0.962438 0.931845
vt 0.912725 0.931845
vt 0.000000 0.000000
vt 0.523047 0.000000
vt 0.523047 1.000000
vt 0.000000 1.000000
vn -0.0000 -0.0000 -1.0000
usemtl screen_reaching_hand
s off
f 5/1/1 1/2/1 2/3/1 6/4/1
f 7/5/1 4/6/1 3/7/1 8/8/1
f 9/9/1 11/10/1 12/11/1 10/12/1
